<?xml version="1.0" encoding="utf-8"?>
<!-- Generator: Adobe Illustrator 16.0.4, SVG Export Plug-In . SVG Version: 6.00 Build 0)  -->
<!DOCTYPE svg PUBLIC "-//W3C//DTD SVG 1.1//EN" "http://www.w3.org/Graphics/SVG/1.1/DTD/svg11.dtd">
<svg version="1.1" id="Layer_1" xmlns="http://www.w3.org/2000/svg" xmlns:xlink="http://www.w3.org/1999/xlink" x="0px" y="0px"
	 width="250px" height="250px" viewBox="0 0 250 250" enable-background="new 0 0 250 250" xml:space="preserve">
<rect fill="#E8E8E8" width="250" height="250"/>
<g>
	<path fill="#F7F7F7" d="M195,186.822c0-0.007,0-0.007,0-0.007c-8-25.932-22.88-45.872-43.781-50.901
		c-5.214,3.936-11.537,6.683-18.25,7.841c-2.393,0.417-4.94,0.633-7.463,0.624c-2.366-0.007-4.734-0.216-7.006-0.601
		c-6.761-1.151-12.988-3.905-18.237-7.864c-20.722,4.982-37.437,24.642-43.333,50.258c-0.008,0-0.015,0-0.015,0.012
		c-0.416,1.783-0.776,3.607-1.073,5.457c0.497,4.695,4.46,8.359,9.286,8.359h120.718c5.076,0,9.526-4.058,9.648-9.104
		C195.257,189.519,195,188.159,195,186.822z"/>
	<path fill="#F7F7F7" d="M125.186,135.312c23.321,0,42.224-18.901,42.224-42.218c0-23.322-18.902-42.226-42.224-42.226
		c-23.319,0-42.223,18.903-42.223,42.226C82.963,116.41,101.867,135.312,125.186,135.312z"/>
</g>
</svg>
